<?xml version="1.0" encoding="UTF-8"?>
<!DOCTYPE svg PUBLIC "-//W3C//DTD SVG 1.1//EN" "http://www.w3.org/Graphics/SVG/1.1/DTD/svg11.dtd">
<svg xmlns="http://www.w3.org/2000/svg" version="1.1" width="128px" height="128px" style="shape-rendering:geometricPrecision; text-rendering:geometricPrecision; image-rendering:optimizeQuality; fill-rule:evenodd; clip-rule:evenodd" xmlns:xlink="http://www.w3.org/1999/xlink">
<g><path style="opacity:0.637" fill="#252424" d="M 38.5,8.5 C 38.5,7.5 38.5,6.5 38.5,5.5C 36.3146,5.70356 34.3146,6.37023 32.5,7.5C 34.8039,4.06937 38.1372,2.73603 42.5,3.5C 42.2623,6.0685 40.929,7.73517 38.5,8.5 Z"/></g>
<g><path style="opacity:0.065" fill="#070606" d="M 88.5,3.5 C 89.038,5.11723 89.3713,6.7839 89.5,8.5C 86.3033,6.99632 85.97,5.32965 88.5,3.5 Z"/></g>
<g><path style="opacity:0.508" fill="#888786" d="M 38.5,8.5 C 38.5,8.83333 38.5,9.16667 38.5,9.5C 37.5,9.5 36.5,9.5 35.5,9.5C 35.5,11.8333 35.5,14.1667 35.5,16.5C 34.6862,14.369 34.1862,12.0356 34,9.5C 33.5831,10.756 32.7498,11.4226 31.5,11.5C 31.5,10.5 31.5,9.5 31.5,8.5C 32.1667,8.5 32.5,8.16667 32.5,7.5C 34.3146,6.37023 36.3146,5.70356 38.5,5.5C 38.5,6.5 38.5,7.5 38.5,8.5 Z"/></g>
<g><path style="opacity:0.029" fill="#111213" d="M 31.5,8.5 C 31.5,9.5 31.5,10.5 31.5,11.5C 30.5655,12.5676 30.2322,13.901 30.5,15.5C 29.5,15.5 28.5,15.5 27.5,15.5C 28.5839,12.9959 29.9172,10.6626 31.5,8.5 Z"/></g>
<g><path style="opacity:1" fill="#b1b1b1" d="M 97.5,14.5 C 97.5,16.1667 97.5,17.8333 97.5,19.5C 97.5,20.1667 97.1667,20.5 96.5,20.5C 96.8919,17.2784 96.3919,14.2784 95,11.5C 94.7599,13.8516 93.9265,15.8516 92.5,17.5C 92.9281,13.7254 92.2614,10.2254 90.5,7C 90.8333,6.5 91.1667,6 91.5,5.5C 94.7649,7.70696 96.7649,10.707 97.5,14.5 Z"/></g>
<g><path style="opacity:1" fill="#f1f1f0" d="M 35.5,16.5 C 35.5106,18.0174 36.1772,19.1841 37.5,20C 39.4048,21.4213 41.4048,22.588 43.5,23.5C 44.1667,24.1667 44.8333,24.8333 45.5,25.5C 42.8333,26.5 40.1667,27.5 37.5,28.5C 36.7377,26.7376 35.4044,25.7376 33.5,25.5C 31.7006,21.0968 31.034,16.4302 31.5,11.5C 32.7498,11.4226 33.5831,10.756 34,9.5C 34.1862,12.0356 34.6862,14.369 35.5,16.5 Z"/></g>
<g><path style="opacity:1" fill="#e9eaeb" d="M 96.5,20.5 C 96.5,21.1667 96.5,21.8333 96.5,22.5C 94.8606,24.8061 92.8606,26.8061 90.5,28.5C 89.8333,28.5 89.1667,28.5 88.5,28.5C 86.6115,27.396 84.9448,26.0627 83.5,24.5C 84.9549,22.8657 86.6216,21.5324 88.5,20.5C 89.6366,19.2112 90.9699,18.2112 92.5,17.5C 93.9265,15.8516 94.7599,13.8516 95,11.5C 96.3919,14.2784 96.8919,17.2784 96.5,20.5 Z"/></g>
<g><path style="opacity:0.286" fill="#2b2b2c" d="M 38.5,9.5 C 37.3488,12.5961 37.6821,15.5961 39.5,18.5C 37.9382,18.2671 36.6049,17.6005 35.5,16.5C 35.5,14.1667 35.5,11.8333 35.5,9.5C 36.5,9.5 37.5,9.5 38.5,9.5 Z"/></g>
<g><path style="opacity:0.182" fill="#242525" d="M 88.5,3.5 C 90.604,3.2011 92.604,3.53443 94.5,4.5C 96.5363,7.85641 98.5363,11.1897 100.5,14.5C 99.5,14.5 98.5,14.5 97.5,14.5C 96.7649,10.707 94.7649,7.70696 91.5,5.5C 91.1667,6 90.8333,6.5 90.5,7C 92.2614,10.2254 92.9281,13.7254 92.5,17.5C 90.9699,18.2112 89.6366,19.2112 88.5,20.5C 87.6618,20.1583 87.3284,19.4916 87.5,18.5C 91.6772,15.8004 92.3438,12.467 89.5,8.5C 89.3713,6.7839 89.038,5.11723 88.5,3.5 Z"/></g>
<g><path style="opacity:0.682" fill="#7b7b7b" d="M 97.5,14.5 C 98.5,14.5 99.5,14.5 100.5,14.5C 100.5,16.1667 100.5,17.8333 100.5,19.5C 99.5,19.5 98.5,19.5 97.5,19.5C 97.5,17.8333 97.5,16.1667 97.5,14.5 Z"/></g>
<g><path style="opacity:0.518" fill="#5c5b5b" d="M 9.5,16.5 C 9.5,17.5 9.5,18.5 9.5,19.5C 5.89788,17.8821 2.56455,18.2154 -0.5,20.5C -0.5,19.5 -0.5,18.5 -0.5,17.5C 2.72797,16.5863 6.06131,16.2529 9.5,16.5 Z"/></g>
<g><path style="opacity:0.2" fill="#50504e" d="M 31.5,11.5 C 31.034,16.4302 31.7006,21.0968 33.5,25.5C 32.5,24.8333 31.5,24.1667 30.5,23.5C 28.3455,21.3826 27.3455,18.716 27.5,15.5C 28.5,15.5 29.5,15.5 30.5,15.5C 30.2322,13.901 30.5655,12.5676 31.5,11.5 Z"/></g>
<g><path style="opacity:0.598" fill="#61605f" d="M 117.5,16.5 C 120.833,16.5 124.167,16.5 127.5,16.5C 127.5,17.5 127.5,18.5 127.5,19.5C 125.126,18.3139 122.792,18.3139 120.5,19.5C 119.167,19.5 117.833,19.5 116.5,19.5C 117.11,18.609 117.443,17.609 117.5,16.5 Z"/></g>
<g><path style="opacity:0.259" fill="#222221" d="M 9.5,16.5 C 11.5138,16.3915 13.1805,17.0582 14.5,18.5C 13.0813,19.4511 11.4147,19.7845 9.5,19.5C 9.5,18.5 9.5,17.5 9.5,16.5 Z"/></g>
<g><path style="opacity:0.357" fill="#737472" d="M 35.5,16.5 C 36.6049,17.6005 37.9382,18.2671 39.5,18.5C 39.8333,18.5 40.1667,18.5 40.5,18.5C 41.075,20.4113 42.075,22.078 43.5,23.5C 41.4048,22.588 39.4048,21.4213 37.5,20C 36.1772,19.1841 35.5106,18.0174 35.5,16.5 Z"/></g>
<g><path style="opacity:0.259" fill="#181817" d="M 117.5,16.5 C 117.443,17.609 117.11,18.609 116.5,19.5C 115.209,19.7373 114.209,19.404 113.5,18.5C 114.605,17.3995 115.938,16.7329 117.5,16.5 Z"/></g>
<g><path style="opacity:0.606" fill="#979696" d="M 110.5,18.5 C 111.5,18.5 112.5,18.5 113.5,18.5C 114.209,19.404 115.209,19.7373 116.5,19.5C 117.833,19.5 119.167,19.5 120.5,19.5C 117.316,20.3232 113.983,20.9899 110.5,21.5C 110.5,20.5 110.5,19.5 110.5,18.5 Z"/></g>
<g><path style="opacity:0.969" fill="#b4b3b3" d="M 9.5,19.5 C 11.4147,19.7845 13.0813,19.4511 14.5,18.5C 15.5,18.5 16.5,18.5 17.5,18.5C 17.5,19.5 17.5,20.5 17.5,21.5C 12.5592,20.4726 7.55924,19.9726 2.5,20C 1.19551,20.804 0.528845,21.9707 0.5,23.5C 1.15558,25.4534 1.48891,27.4534 1.5,29.5C 0.833333,28.5 0.166667,27.5 -0.5,26.5C -0.5,24.5 -0.5,22.5 -0.5,20.5C 2.56455,18.2154 5.89788,17.8821 9.5,19.5 Z"/></g>
<g><path style="opacity:0.412" fill="#5b5957" d="M 17.5,18.5 C 19.5138,18.3915 21.1805,19.0582 22.5,20.5C 22.5,21.5 22.5,22.5 22.5,23.5C 20.9505,22.5592 19.2838,21.8925 17.5,21.5C 17.5,20.5 17.5,19.5 17.5,18.5 Z"/></g>
<g><path style="opacity:0.184" fill="#3f4040" d="M 110.5,18.5 C 110.5,19.5 110.5,20.5 110.5,21.5C 108.446,21.3653 106.779,22.032 105.5,23.5C 105.167,23.5 104.833,23.5 104.5,23.5C 104.5,22.8333 104.5,22.1667 104.5,21.5C 106.03,19.6535 108.03,18.6535 110.5,18.5 Z"/></g>
<g><path style="opacity:0.413" fill="#075e8a" d="M 57.5,20.5 C 63.1667,20.5 68.8333,20.5 74.5,20.5C 74.5,21.5 74.5,22.5 74.5,23.5C 77.1667,23.5 79.8333,23.5 82.5,23.5C 82.5,23.8333 82.5,24.1667 82.5,24.5C 79.696,25.1115 76.696,25.1115 73.5,24.5C 71.4888,23.1071 69.1554,22.4404 66.5,22.5C 63.5078,22.9657 60.5078,23.2991 57.5,23.5C 57.5,22.5 57.5,21.5 57.5,20.5 Z"/></g>
<g><path style="opacity:0.333" fill="#666665" d="M 87.5,18.5 C 87.3284,19.4916 87.6618,20.1583 88.5,20.5C 86.6216,21.5324 84.9549,22.8657 83.5,24.5C 83.1667,24.5 82.8333,24.5 82.5,24.5C 82.5,24.1667 82.5,23.8333 82.5,23.5C 83.404,22.791 83.7373,21.791 83.5,20.5C 85.1993,20.4729 86.5326,19.8062 87.5,18.5 Z"/></g>
<g><path style="opacity:0.161" fill="#161515" d="M 40.5,18.5 C 45.7783,22.5955 51.445,23.2621 57.5,20.5C 57.5,21.5 57.5,22.5 57.5,23.5C 56.8333,23.5 56.1667,23.5 55.5,23.5C 52.8333,23.5 50.1667,23.5 47.5,23.5C 46.1667,23.5 44.8333,23.5 43.5,23.5C 42.075,22.078 41.075,20.4113 40.5,18.5 Z"/></g>
<g><path style="opacity:0.157" fill="#111113" d="M 74.5,20.5 C 76.3664,21.0138 78.1997,21.6805 80,22.5C 81.3026,22.0217 82.4693,21.355 83.5,20.5C 83.7373,21.791 83.404,22.791 82.5,23.5C 79.8333,23.5 77.1667,23.5 74.5,23.5C 74.5,22.5 74.5,21.5 74.5,20.5 Z"/></g>
<g><path style="opacity:1" fill="#e6e8e9" d="M 127.5,19.5 C 127.5,22.8333 127.5,26.1667 127.5,29.5C 124.966,30.6338 123.633,32.6338 123.5,35.5C 121.46,37.177 119.46,38.8437 117.5,40.5C 116.833,40.5 116.167,40.5 115.5,40.5C 110.881,41.3136 106.214,41.6469 101.5,41.5C 101.167,41.5 100.833,41.5 100.5,41.5C 100.5,41.1667 100.5,40.8333 100.5,40.5C 104.232,38.8693 108.232,37.8693 112.5,37.5C 115.303,37.0387 117.637,35.7053 119.5,33.5C 122.236,31.1421 123.07,28.1421 122,24.5C 119.726,23.1888 117.56,23.1888 115.5,24.5C 113.143,24.3367 110.81,24.5034 108.5,25C 107.619,25.7083 106.953,26.5416 106.5,27.5C 103.569,29.0908 100.902,31.0908 98.5,33.5C 97.475,33.1034 97.3083,32.4368 98,31.5C 100.705,28.9638 103.205,26.2971 105.5,23.5C 106.779,22.032 108.446,21.3653 110.5,21.5C 113.983,20.9899 117.316,20.3232 120.5,19.5C 122.792,18.3139 125.126,18.3139 127.5,19.5 Z"/></g>
<g><path style="opacity:0.588" fill="#6e6968" d="M 43.5,23.5 C 44.8333,23.5 46.1667,23.5 47.5,23.5C 47.5,24.1667 47.5,24.8333 47.5,25.5C 46.8333,25.5 46.1667,25.5 45.5,25.5C 44.8333,24.8333 44.1667,24.1667 43.5,23.5 Z"/></g>
<g><path style="opacity:0.682" fill="#0e4b6f" d="M 47.5,23.5 C 50.1667,23.5 52.8333,23.5 55.5,23.5C 55.5,23.8333 55.5,24.1667 55.5,24.5C 52.8333,24.8333 50.1667,25.1667 47.5,25.5C 47.5,24.8333 47.5,24.1667 47.5,23.5 Z"/></g>
<g><path style="opacity:0.992" fill="#0687bd" d="M 73.5,24.5 C 67.5,24.5 61.5,24.5 55.5,24.5C 55.5,24.1667 55.5,23.8333 55.5,23.5C 56.1667,23.5 56.8333,23.5 57.5,23.5C 60.5078,23.2991 63.5078,22.9657 66.5,22.5C 69.1554,22.4404 71.4888,23.1071 73.5,24.5 Z"/></g>
<g><path style="opacity:0.447" fill="#666564" d="M 24.5,24.5 C 27.8333,25.8333 30.1667,28.1667 31.5,31.5C 28.8333,29.5 26.5,27.1667 24.5,24.5 Z"/></g>
<g><path style="opacity:0.855" fill="#858381" d="M 33.5,25.5 C 35.4044,25.7376 36.7377,26.7376 37.5,28.5C 37.1667,28.5 36.8333,28.5 36.5,28.5C 35.1667,27.8333 34.1667,26.8333 33.5,25.5 Z"/></g>
<g><path style="opacity:1" fill="#2786c4" d="M 115.5,24.5 C 117.467,24.2606 119.301,24.5939 121,25.5C 121.428,28.3217 120.928,30.9884 119.5,33.5C 117.637,35.7053 115.303,37.0387 112.5,37.5C 109.287,37.81 106.287,37.4767 103.5,36.5C 107.312,35.6762 111.312,35.1762 115.5,35C 118.62,32.5923 119.953,29.4257 119.5,25.5C 115.837,25.9518 112.17,26.4518 108.5,27C 105.924,30.0628 103.591,33.2295 101.5,36.5C 100.427,35.7494 100.26,34.7494 101,33.5C 103.04,31.6298 104.873,29.6298 106.5,27.5C 106.953,26.5416 107.619,25.7083 108.5,25C 110.81,24.5034 113.143,24.3367 115.5,24.5 Z"/></g>
<g><path style="opacity:0.443" fill="#565a5c" d="M 96.5,22.5 C 95.6515,25.6811 93.9848,28.3477 91.5,30.5C 90.6618,30.1583 90.3284,29.4916 90.5,28.5C 92.8606,26.8061 94.8606,24.8061 96.5,22.5 Z"/></g>
<g><path style="opacity:1" fill="#0b9fe9" d="M 55.5,24.5 C 61.5,24.5 67.5,24.5 73.5,24.5C 76.696,25.1115 79.696,25.1115 82.5,24.5C 82.8333,24.5 83.1667,24.5 83.5,24.5C 84.9448,26.0627 86.6115,27.396 88.5,28.5C 90.0596,31.8213 92.3929,33.1546 95.5,32.5C 95.8333,32.5 96.1667,32.5 96.5,32.5C 96.5,33.1667 96.5,33.8333 96.5,34.5C 97.3403,36.8525 98.6736,38.8525 100.5,40.5C 100.5,40.8333 100.5,41.1667 100.5,41.5C 100.5,42.5 100.5,43.5 100.5,44.5C 98.8058,43.4726 97.4725,42.1392 96.5,40.5C 95.1283,39.4884 93.795,38.4884 92.5,37.5C 87.6731,35.4282 83.8398,36.7615 81,41.5C 80.1993,44.367 80.3659,47.0336 81.5,49.5C 82.1276,51.6616 83.461,53.3282 85.5,54.5C 85.5,54.8333 85.5,55.1667 85.5,55.5C 82.7245,54.688 80.5579,53.0213 79,50.5C 78.6888,47.5682 78.5221,44.9016 78.5,42.5C 77.2086,46.0447 77.2086,49.5447 78.5,53C 69.1608,52.3209 59.8275,52.4876 50.5,53.5C 50.7678,51.901 50.4345,50.5676 49.5,49.5C 49.6621,47.4727 49.4955,45.4727 49,43.5C 48.6174,42.944 48.1174,42.6107 47.5,42.5C 47.1667,41.5 46.5,40.8333 45.5,40.5C 45.5,40.1667 45.5,39.8333 45.5,39.5C 44.488,37.124 42.6546,36.124 40,36.5C 37.9919,36.3068 36.4919,36.9735 35.5,38.5C 34.8333,38.5 34.5,38.8333 34.5,39.5C 31.1032,40.2585 29.7699,42.4251 30.5,46C 30.0412,48.9595 31.0412,51.1262 33.5,52.5C 33.8333,53.1667 34.1667,53.8333 34.5,54.5C 34.8333,55.5 35.5,56.1667 36.5,56.5C 36.8333,57.1667 37.1667,57.8333 37.5,58.5C 34.4726,59.6801 31.4726,61.0134 28.5,62.5C 27.1952,60.6028 26.5286,58.2695 26.5,55.5C 26.8346,50.8275 27.1679,46.1609 27.5,41.5C 27.5,41.1667 27.5,40.8333 27.5,40.5C 28.9063,40.0269 29.573,39.0269 29.5,37.5C 30.9063,37.0269 31.573,36.0269 31.5,34.5C 32.1667,34.5 32.5,34.1667 32.5,33.5C 34.674,33.2503 36.3406,32.2503 37.5,30.5C 40.8841,28.7446 44.2174,27.0779 47.5,25.5C 50.1667,25.1667 52.8333,24.8333 55.5,24.5 Z"/></g>
<g><path style="opacity:0.996" fill="#739bb4" d="M 115.5,24.5 C 117.56,23.1888 119.726,23.1888 122,24.5C 123.07,28.1421 122.236,31.1421 119.5,33.5C 120.928,30.9884 121.428,28.3217 121,25.5C 119.301,24.5939 117.467,24.2606 115.5,24.5 Z"/></g>
<g><path style="opacity:0.045" fill="#1c1b1b" d="M 22.5,20.5 C 26.1219,22.7867 29.4552,25.4534 32.5,28.5C 31.8333,26.8333 31.1667,25.1667 30.5,23.5C 31.5,24.1667 32.5,24.8333 33.5,25.5C 34.1667,26.8333 35.1667,27.8333 36.5,28.5C 36.106,30.7099 34.7727,32.0432 32.5,32.5C 31.8333,32.5 31.5,32.1667 31.5,31.5C 30.1667,28.1667 27.8333,25.8333 24.5,24.5C 23.5084,24.6716 22.8417,24.3382 22.5,23.5C 22.5,22.5 22.5,21.5 22.5,20.5 Z M 32.5,28.5 C 34.337,28.6395 34.6704,29.3061 33.5,30.5C 32.7025,30.0431 32.3691,29.3764 32.5,28.5 Z"/></g>
<g><path style="opacity:1" fill="#5b9fc8" d="M 45.5,25.5 C 46.1667,25.5 46.8333,25.5 47.5,25.5C 44.2174,27.0779 40.8841,28.7446 37.5,30.5C 37.5,29.8333 37.5,29.1667 37.5,28.5C 40.1667,27.5 42.8333,26.5 45.5,25.5 Z"/></g>
<g><path style="opacity:1" fill="#e7e9e9" d="M 17.5,21.5 C 19.2838,21.8925 20.9505,22.5592 22.5,23.5C 22.8417,24.3382 23.5084,24.6716 24.5,24.5C 26.5,27.1667 28.8333,29.5 31.5,31.5C 31.5,32.1667 31.8333,32.5 32.5,32.5C 32.5,32.8333 32.5,33.1667 32.5,33.5C 32.5,34.1667 32.1667,34.5 31.5,34.5C 28.0473,32.2614 24.714,29.7614 21.5,27C 19.0912,25.2932 16.4245,24.4598 13.5,24.5C 12.5084,24.6716 11.8417,24.3382 11.5,23.5C 9.77682,22.193 7.94349,22.193 6,23.5C 5.33333,25.8333 5.33333,28.1667 6,30.5C 6.38258,31.056 6.88258,31.3893 7.5,31.5C 8.48837,32.795 9.48837,34.1283 10.5,35.5C 11.0577,36.7899 12.0577,37.6232 13.5,38C 18.6059,37.8862 23.2726,38.7195 27.5,40.5C 27.5,40.8333 27.5,41.1667 27.5,41.5C 27.1667,41.5 26.8333,41.5 26.5,41.5C 19.4141,41.877 12.7474,40.5437 6.5,37.5C 6.16667,36.5 5.5,35.8333 4.5,35.5C 4.57298,33.9731 3.90632,32.9731 2.5,32.5C 2.44312,31.391 2.10978,30.391 1.5,29.5C 1.48891,27.4534 1.15558,25.4534 0.5,23.5C 0.528845,21.9707 1.19551,20.804 2.5,20C 7.55924,19.9726 12.5592,20.4726 17.5,21.5 Z"/></g>
<g><path style="opacity:0.992" fill="#a2b9c6" d="M 11.5,23.5 C 9.85613,23.2865 8.35613,23.6198 7,24.5C 6.4436,26.8848 6.61027,29.2181 7.5,31.5C 6.88258,31.3893 6.38258,31.056 6,30.5C 5.33333,28.1667 5.33333,25.8333 6,23.5C 7.94349,22.193 9.77682,22.193 11.5,23.5 Z"/></g>
<g><path style="opacity:1" fill="#357eae" d="M 13.5,24.5 C 16.4245,24.4598 19.0912,25.2932 21.5,27C 24.714,29.7614 28.0473,32.2614 31.5,34.5C 31.573,36.0269 30.9063,37.0269 29.5,37.5C 28.5,37.5 27.5,37.5 26.5,37.5C 27.2341,36.2921 27.5674,34.9587 27.5,33.5C 23.8465,31.1865 20.1798,28.8531 16.5,26.5C 15.5,25.8333 14.5,25.1667 13.5,24.5 Z"/></g>
<g><path style="opacity:0.165" fill="#1b1d1e" d="M 97.5,19.5 C 98.5,19.5 99.5,19.5 100.5,19.5C 99.2972,21.8087 98.4638,24.1421 98,26.5C 99.7581,24.2345 101.925,22.5678 104.5,21.5C 104.5,22.1667 104.5,22.8333 104.5,23.5C 101.097,25.8998 98.4302,28.8998 96.5,32.5C 96.1667,32.5 95.8333,32.5 95.5,32.5C 93.9382,32.2671 92.6049,31.6005 91.5,30.5C 93.9848,28.3477 95.6515,25.6811 96.5,22.5C 96.5,21.8333 96.5,21.1667 96.5,20.5C 97.1667,20.5 97.5,20.1667 97.5,19.5 Z M 96.5,27.5 C 96.4894,29.6859 95.4894,30.5192 93.5,30C 94.3734,28.955 95.3734,28.1217 96.5,27.5 Z"/></g>
<g><path style="opacity:0.894" fill="#acacad" d="M 104.5,23.5 C 104.833,23.5 105.167,23.5 105.5,23.5C 103.205,26.2971 100.705,28.9638 98,31.5C 97.3083,32.4368 97.475,33.1034 98.5,33.5C 98.1583,34.3382 97.4916,34.6716 96.5,34.5C 96.5,33.8333 96.5,33.1667 96.5,32.5C 98.4302,28.8998 101.097,25.8998 104.5,23.5 Z"/></g>
<g><path style="opacity:1" fill="#039eee" d="M 103.5,36.5 C 102.833,36.5 102.167,36.5 101.5,36.5C 103.591,33.2295 105.924,30.0628 108.5,27C 112.17,26.4518 115.837,25.9518 119.5,25.5C 119.953,29.4257 118.62,32.5923 115.5,35C 111.312,35.1762 107.312,35.6762 103.5,36.5 Z"/></g>
<g><path style="opacity:0.549" fill="#605f60" d="M -0.5,26.5 C 0.166667,27.5 0.833333,28.5 1.5,29.5C 2.10978,30.391 2.44312,31.391 2.5,32.5C 1.5,31.8333 0.5,31.1667 -0.5,30.5C -0.5,29.1667 -0.5,27.8333 -0.5,26.5 Z"/></g>
<g><path style="opacity:0.808" fill="#175176" d="M 36.5,28.5 C 36.8333,28.5 37.1667,28.5 37.5,28.5C 37.5,29.1667 37.5,29.8333 37.5,30.5C 36.3406,32.2503 34.674,33.2503 32.5,33.5C 32.5,33.1667 32.5,32.8333 32.5,32.5C 34.7727,32.0432 36.106,30.7099 36.5,28.5 Z"/></g>
<g><path style="opacity:1" fill="#548aab" d="M 106.5,27.5 C 104.873,29.6298 103.04,31.6298 101,33.5C 100.26,34.7494 100.427,35.7494 101.5,36.5C 102.167,36.5 102.833,36.5 103.5,36.5C 106.287,37.4767 109.287,37.81 112.5,37.5C 108.232,37.8693 104.232,38.8693 100.5,40.5C 98.6736,38.8525 97.3403,36.8525 96.5,34.5C 97.4916,34.6716 98.1583,34.3382 98.5,33.5C 100.902,31.0908 103.569,29.0908 106.5,27.5 Z"/></g>
<g><path style="opacity:0.925" fill="#949595" d="M 127.5,29.5 C 127.5,30.1667 127.5,30.8333 127.5,31.5C 126,32.6252 124.667,33.9586 123.5,35.5C 123.633,32.6338 124.966,30.6338 127.5,29.5 Z"/></g>
<g><path style="opacity:0.871" fill="#1f77ac" d="M 88.5,28.5 C 89.1667,28.5 89.8333,28.5 90.5,28.5C 90.3284,29.4916 90.6618,30.1583 91.5,30.5C 92.6049,31.6005 93.9382,32.2671 95.5,32.5C 92.3929,33.1546 90.0596,31.8213 88.5,28.5 Z"/></g>
<g><path style="opacity:0.541" fill="#6c6a6a" d="M 2.5,32.5 C 3.90632,32.9731 4.57298,33.9731 4.5,35.5C 3.09368,35.0269 2.42702,34.0269 2.5,32.5 Z"/></g>
<g><path style="opacity:1" fill="#04a2ef" d="M 16.5,26.5 C 20.1798,28.8531 23.8465,31.1865 27.5,33.5C 27.5674,34.9587 27.2341,36.2921 26.5,37.5C 25.8333,37.5 25.1667,37.5 24.5,37.5C 21.6446,35.7499 18.3113,34.9165 14.5,35C 10.4065,33.6522 8.73988,30.8188 9.5,26.5C 11.8333,26.5 14.1667,26.5 16.5,26.5 Z"/></g>
<g><path style="opacity:0.998" fill="#1888d1" d="M 11.5,23.5 C 11.8417,24.3382 12.5084,24.6716 13.5,24.5C 14.5,25.1667 15.5,25.8333 16.5,26.5C 14.1667,26.5 11.8333,26.5 9.5,26.5C 8.73988,30.8188 10.4065,33.6522 14.5,35C 18.3113,34.9165 21.6446,35.7499 24.5,37.5C 19.759,37.2651 15.0923,36.5984 10.5,35.5C 9.48837,34.1283 8.48837,32.795 7.5,31.5C 6.61027,29.2181 6.4436,26.8848 7,24.5C 8.35613,23.6198 9.85613,23.2865 11.5,23.5 Z"/></g>
<g><path style="opacity:1" fill="#75aaca" d="M 92.5,37.5 C 90.4727,37.3379 88.4727,37.5045 86.5,38C 85.944,38.3826 85.6107,38.8826 85.5,39.5C 81.9088,41.7824 80.5755,45.1157 81.5,49.5C 80.3659,47.0336 80.1993,44.367 81,41.5C 83.8398,36.7615 87.6731,35.4282 92.5,37.5 Z"/></g>
<g><path style="opacity:1" fill="#5d9cc1" d="M 10.5,35.5 C 15.0923,36.5984 19.759,37.2651 24.5,37.5C 25.1667,37.5 25.8333,37.5 26.5,37.5C 27.5,37.5 28.5,37.5 29.5,37.5C 29.573,39.0269 28.9063,40.0269 27.5,40.5C 23.2726,38.7195 18.6059,37.8862 13.5,38C 12.0577,37.6232 11.0577,36.7899 10.5,35.5 Z"/></g>
<g><path style="opacity:1" fill="#66a5ca" d="M 45.5,39.5 C 42.3893,37.348 39.056,37.0147 35.5,38.5C 36.4919,36.9735 37.9919,36.3068 40,36.5C 42.6546,36.124 44.488,37.124 45.5,39.5 Z"/></g>
<g><path style="opacity:1" fill="#d2dadd" d="M 92.5,37.5 C 93.795,38.4884 95.1283,39.4884 96.5,40.5C 96.5,41.5 96.5,42.5 96.5,43.5C 95.3951,42.3995 94.0618,41.7329 92.5,41.5C 91.4324,40.5655 90.099,40.2322 88.5,40.5C 87.791,39.596 86.791,39.2627 85.5,39.5C 85.6107,38.8826 85.944,38.3826 86.5,38C 88.4727,37.5045 90.4727,37.3379 92.5,37.5 Z"/></g>
<g><path style="opacity:0.072" fill="#2b2d2d" d="M 127.5,31.5 C 127.5,32.5 127.5,33.5 127.5,34.5C 124.732,38.6019 121.065,41.6019 116.5,43.5C 116.557,42.391 116.89,41.391 117.5,40.5C 119.46,38.8437 121.46,37.177 123.5,35.5C 124.667,33.9586 126,32.6252 127.5,31.5 Z"/></g>
<g><path style="opacity:0.231" fill="#1d2021" d="M -0.5,30.5 C 0.5,31.1667 1.5,31.8333 2.5,32.5C 2.42702,34.0269 3.09368,35.0269 4.5,35.5C 5.5,35.8333 6.16667,36.5 6.5,37.5C 7.73564,39.8275 9.73564,40.9942 12.5,41C 13.2524,41.6708 13.5858,42.5041 13.5,43.5C 7.44129,42.1069 2.77462,38.7735 -0.5,33.5C -0.5,32.5 -0.5,31.5 -0.5,30.5 Z"/></g>
<g><path style="opacity:1" fill="#5f5d5c" d="M 88.5,40.5 C 90.099,40.2322 91.4324,40.5655 92.5,41.5C 88.0061,42.1587 86.3395,44.8254 87.5,49.5C 86.5386,47.7354 86.2053,45.7354 86.5,43.5C 87.1667,42.5 87.8333,41.5 88.5,40.5 Z"/></g>
<g><path style="opacity:1" fill="#66a8ce" d="M 34.5,39.5 C 30.8781,43.5357 30.5447,47.869 33.5,52.5C 30.5447,47.869 30.8781,43.5357 34.5,39.5 Z"/></g>
<g><path style="opacity:1" fill="#e6e8e7" d="M 45.5,39.5 C 45.5,39.8333 45.5,40.1667 45.5,40.5C 44.7978,41.1157 43.7978,41.1157 42.5,40.5C 40.2776,40.178 38.4443,40.8446 37,42.5C 36.2042,45.0385 36.3709,47.3718 37.5,49.5C 37.5,50.1667 37.8333,50.5 38.5,50.5C 39.6354,52.2132 41.302,52.8799 43.5,52.5C 43.7373,51.209 43.404,50.209 42.5,49.5C 43.1834,47.8235 44.5168,47.1568 46.5,47.5C 46.5,48.8333 46.5,50.1667 46.5,51.5C 45.4726,53.1942 44.1392,54.5275 42.5,55.5C 39.7628,55.5987 37.0961,55.2653 34.5,54.5C 34.1667,53.8333 33.8333,53.1667 33.5,52.5C 30.5447,47.869 30.8781,43.5357 34.5,39.5C 34.5,38.8333 34.8333,38.5 35.5,38.5C 39.056,37.0147 42.3893,37.348 45.5,39.5 Z"/></g>
<g><path style="opacity:0.992" fill="#747373" d="M 42.5,40.5 C 42.5,40.8333 42.5,41.1667 42.5,41.5C 38.0061,42.1587 36.3395,44.8254 37.5,49.5C 36.3709,47.3718 36.2042,45.0385 37,42.5C 38.4443,40.8446 40.2776,40.178 42.5,40.5 Z"/></g>
<g><path style="opacity:1" fill="#f3f3f2" d="M 85.5,39.5 C 86.791,39.2627 87.791,39.596 88.5,40.5C 87.8333,41.5 87.1667,42.5 86.5,43.5C 85.3709,45.6282 85.2042,47.9615 86,50.5C 86.8159,51.8228 87.9826,52.4894 89.5,52.5C 90.5676,53.4345 91.901,53.7678 93.5,53.5C 91.0521,54.4731 88.3854,54.8064 85.5,54.5C 83.461,53.3282 82.1276,51.6616 81.5,49.5C 80.5755,45.1157 81.9088,41.7824 85.5,39.5 Z"/></g>
<g><path style="opacity:0.686" fill="#abaaaa" d="M 115.5,40.5 C 114.449,41.2223 113.782,42.2223 113.5,43.5C 112.833,43.5 112.167,43.5 111.5,43.5C 108.375,42.5206 105.042,42.1872 101.5,42.5C 101.5,42.1667 101.5,41.8333 101.5,41.5C 106.214,41.6469 110.881,41.3136 115.5,40.5 Z"/></g>
<g><path style="opacity:0.208" fill="#a8a8a8" d="M 6.5,37.5 C 12.7474,40.5437 19.4141,41.877 26.5,41.5C 26.5,41.8333 26.5,42.1667 26.5,42.5C 22.9581,42.1872 19.6248,42.5206 16.5,43.5C 15.5,43.5 14.5,43.5 13.5,43.5C 13.5858,42.5041 13.2524,41.6708 12.5,41C 9.73564,40.9942 7.73564,39.8275 6.5,37.5 Z"/></g>
<g><path style="opacity:1" fill="#161514" d="M 42.5,41.5 C 44.7271,42.4006 45.7271,44.0672 45.5,46.5C 44.1667,46.5 42.8333,46.5 41.5,46.5C 41.2627,47.791 41.596,48.791 42.5,49.5C 42.6309,50.3764 42.2975,51.0431 41.5,51.5C 40.5832,50.8728 39.5832,50.5394 38.5,50.5C 37.8333,50.5 37.5,50.1667 37.5,49.5C 36.3395,44.8254 38.0061,42.1587 42.5,41.5 Z"/></g>
<g><path style="opacity:1" fill="#151313" d="M 92.5,41.5 C 93.4756,42.8149 94.4756,44.1482 95.5,45.5C 94.3112,46.4287 92.9778,46.762 91.5,46.5C 91.2627,47.791 91.596,48.791 92.5,49.5C 92.1788,51.0481 91.1788,51.7148 89.5,51.5C 88.5,51.1667 87.8333,50.5 87.5,49.5C 86.3395,44.8254 88.0061,42.1587 92.5,41.5 Z"/></g>
<g><path style="opacity:0.514" fill="#504f4f" d="M 101.5,43.5 C 101.5,43.1667 101.5,42.8333 101.5,42.5C 105.042,42.1872 108.375,42.5206 111.5,43.5C 111.5,44.1667 111.167,44.5 110.5,44.5C 107.713,43.5233 104.713,43.19 101.5,43.5 Z"/></g>
<g><path style="opacity:0.122" fill="#5d5c5a" d="M 115.5,40.5 C 116.167,40.5 116.833,40.5 117.5,40.5C 116.89,41.391 116.557,42.391 116.5,43.5C 115.5,43.5 114.5,43.5 113.5,43.5C 113.782,42.2223 114.449,41.2223 115.5,40.5 Z"/></g>
<g><path style="opacity:0.055" fill="#090707" d="M 17.5,43.5 C 20.2469,43.1866 22.9135,43.52 25.5,44.5C 25.0431,45.2975 24.3764,45.6309 23.5,45.5C 21.1016,45.7406 19.1016,45.0739 17.5,43.5 Z"/></g>
<g><path style="opacity:0.996" fill="#8c8684" d="M 92.5,41.5 C 94.0618,41.7329 95.3951,42.3995 96.5,43.5C 96.5,43.8333 96.5,44.1667 96.5,44.5C 96.5,45.5 96.5,46.5 96.5,47.5C 94.5168,47.1568 93.1834,47.8235 92.5,49.5C 91.596,48.791 91.2627,47.791 91.5,46.5C 92.9778,46.762 94.3112,46.4287 95.5,45.5C 94.4756,44.1482 93.4756,42.8149 92.5,41.5 Z"/></g>
<g><path style="opacity:0.045" fill="#0f0f0f" d="M 101.5,43.5 C 104.713,43.19 107.713,43.5233 110.5,44.5C 107.99,44.9267 105.657,45.5933 103.5,46.5C 101.952,46.1788 101.285,45.1788 101.5,43.5 Z"/></g>
<g><path style="opacity:1" fill="#52b1e1" d="M 47.5,42.5 C 48.1174,42.6107 48.6174,42.944 49,43.5C 49.4955,45.4727 49.6621,47.4727 49.5,49.5C 49.1667,50.5 48.5,51.1667 47.5,51.5C 47.5,48.5 47.5,45.5 47.5,42.5 Z"/></g>
<g><path style="opacity:1" fill="#a59d94" d="M 42.5,41.5 C 42.5,41.1667 42.5,40.8333 42.5,40.5C 43.7978,41.1157 44.7978,41.1157 45.5,40.5C 46.5,40.8333 47.1667,41.5 47.5,42.5C 47.5,45.5 47.5,48.5 47.5,51.5C 47.1667,51.5 46.8333,51.5 46.5,51.5C 46.5,50.1667 46.5,48.8333 46.5,47.5C 44.5168,47.1568 43.1834,47.8235 42.5,49.5C 41.596,48.791 41.2627,47.791 41.5,46.5C 42.8333,46.5 44.1667,46.5 45.5,46.5C 45.7271,44.0672 44.7271,42.4006 42.5,41.5 Z"/></g>
<g><path style="opacity:1" fill="#87b9d2" d="M 96.5,44.5 C 98.9163,46.2949 98.9163,48.2949 96.5,50.5C 96.5,49.5 96.5,48.5 96.5,47.5C 96.5,46.5 96.5,45.5 96.5,44.5 Z"/></g>
<g><path style="opacity:1" fill="#b0b0b0" d="M 86.5,43.5 C 86.2053,45.7354 86.5386,47.7354 87.5,49.5C 87.8333,50.5 88.5,51.1667 89.5,51.5C 89.5,51.8333 89.5,52.1667 89.5,52.5C 87.9826,52.4894 86.8159,51.8228 86,50.5C 85.2042,47.9615 85.3709,45.6282 86.5,43.5 Z"/></g>
<g><path style="opacity:1" fill="#504a47" d="M 42.5,49.5 C 43.404,50.209 43.7373,51.209 43.5,52.5C 41.302,52.8799 39.6354,52.2132 38.5,50.5C 39.5832,50.5394 40.5832,50.8728 41.5,51.5C 42.2975,51.0431 42.6309,50.3764 42.5,49.5 Z"/></g>
<g><path style="opacity:1" fill="#5d534b" d="M 92.5,49.5 C 93.404,50.209 93.7373,51.209 93.5,52.5C 92.1667,52.5 90.8333,52.5 89.5,52.5C 89.5,52.1667 89.5,51.8333 89.5,51.5C 91.1788,51.7148 92.1788,51.0481 92.5,49.5 Z"/></g>
<g><path style="opacity:1" fill="#29afef" d="M 96.5,40.5 C 97.4725,42.1392 98.8058,43.4726 100.5,44.5C 101.134,50.1448 101.468,55.8114 101.5,61.5C 100.85,61.1961 100.183,60.8627 99.5,60.5C 98.6786,57.5535 98.1786,54.5535 98,51.5C 97.6174,52.056 97.1174,52.3893 96.5,52.5C 96.5,51.8333 96.5,51.1667 96.5,50.5C 98.9163,48.2949 98.9163,46.2949 96.5,44.5C 96.5,44.1667 96.5,43.8333 96.5,43.5C 96.5,42.5 96.5,41.5 96.5,40.5 Z"/></g>
<g><path style="opacity:1" fill="#d1c7be" d="M 96.5,47.5 C 96.5,48.5 96.5,49.5 96.5,50.5C 96.5,51.1667 96.5,51.8333 96.5,52.5C 95.391,52.5569 94.391,52.8902 93.5,53.5C 91.901,53.7678 90.5676,53.4345 89.5,52.5C 90.8333,52.5 92.1667,52.5 93.5,52.5C 93.7373,51.209 93.404,50.209 92.5,49.5C 93.1834,47.8235 94.5168,47.1568 96.5,47.5 Z"/></g>
<g><path style="opacity:0.922" fill="#127eb7" d="M 26.5,41.5 C 26.8333,41.5 27.1667,41.5 27.5,41.5C 27.1679,46.1609 26.8346,50.8275 26.5,55.5C 26.5286,58.2695 27.1952,60.6028 28.5,62.5C 27.713,64.1042 26.3797,64.7709 24.5,64.5C 25.3308,57.2294 25.9974,49.896 26.5,42.5C 26.5,42.1667 26.5,41.8333 26.5,41.5 Z"/></g>
<g><path style="opacity:1" fill="#0196e9" d="M 85.5,55.5 C 85.5,56.1667 85.8333,56.5 86.5,56.5C 86.0831,57.1239 85.4164,57.4573 84.5,57.5C 71.2432,54.0559 57.9099,53.5559 44.5,56C 46.1412,54.871 47.1412,53.371 47.5,51.5C 48.5,51.1667 49.1667,50.5 49.5,49.5C 50.4345,50.5676 50.7678,51.901 50.5,53.5C 59.8275,52.4876 69.1608,52.3209 78.5,53C 77.2086,49.5447 77.2086,46.0447 78.5,42.5C 78.5221,44.9016 78.6888,47.5682 79,50.5C 80.5579,53.0213 82.7245,54.688 85.5,55.5 Z"/></g>
<g><path style="opacity:0.788" fill="#076898" d="M 100.5,41.5 C 100.833,41.5 101.167,41.5 101.5,41.5C 101.5,41.8333 101.5,42.1667 101.5,42.5C 101.5,42.8333 101.5,43.1667 101.5,43.5C 101.285,45.1788 101.952,46.1788 103.5,46.5C 104.341,48.3792 104.675,50.3792 104.5,52.5C 102.577,56.0293 101.911,60.0293 102.5,64.5C 101.662,64.1583 101.328,63.4916 101.5,62.5C 101.5,62.1667 101.5,61.8333 101.5,61.5C 101.468,55.8114 101.134,50.1448 100.5,44.5C 100.5,43.5 100.5,42.5 100.5,41.5 Z"/></g>
<g><path style="opacity:0.042" fill="#060406" d="M 23.5,49.5 C 24.8333,53.8333 24.8333,58.1667 23.5,62.5C 22.4027,58.2234 22.4027,53.8901 23.5,49.5 Z"/></g>
<g><path style="opacity:0.584" fill="#2c475c" d="M 16.5,43.5 C 19.6248,42.5206 22.9581,42.1872 26.5,42.5C 25.9974,49.896 25.3308,57.2294 24.5,64.5C 24.5,64.8333 24.5,65.1667 24.5,65.5C 24.5,66.1667 24.1667,66.5 23.5,66.5C 23.5,65.5 23.5,64.5 23.5,63.5C 23.5,63.1667 23.5,62.8333 23.5,62.5C 24.8333,58.1667 24.8333,53.8333 23.5,49.5C 23.5,48.1667 23.5,46.8333 23.5,45.5C 24.3764,45.6309 25.0431,45.2975 25.5,44.5C 22.9135,43.52 20.2469,43.1866 17.5,43.5C 17.1667,43.5 16.8333,43.5 16.5,43.5 Z"/></g>
<g><path style="opacity:1" fill="#98c2d9" d="M 96.5,52.5 C 95.1979,54.8218 93.1979,56.1551 90.5,56.5C 89.1667,56.5 87.8333,56.5 86.5,56.5C 85.8333,56.5 85.5,56.1667 85.5,55.5C 85.5,55.1667 85.5,54.8333 85.5,54.5C 88.3854,54.8064 91.0521,54.4731 93.5,53.5C 94.391,52.8902 95.391,52.5569 96.5,52.5 Z"/></g>
<g><path style="opacity:1" fill="#6ea8c8" d="M 34.5,54.5 C 37.0961,55.2653 39.7628,55.5987 42.5,55.5C 40.7354,56.4614 38.7354,56.7947 36.5,56.5C 35.5,56.1667 34.8333,55.5 34.5,54.5 Z"/></g>
<g><path style="opacity:1" fill="#3690c8" d="M 46.5,51.5 C 46.8333,51.5 47.1667,51.5 47.5,51.5C 47.1412,53.371 46.1412,54.871 44.5,56C 57.9099,53.5559 71.2432,54.0559 84.5,57.5C 85.4164,57.4573 86.0831,57.1239 86.5,56.5C 87.8333,56.5 89.1667,56.5 90.5,56.5C 89.4019,57.397 89.4019,58.2303 90.5,59C 92.9739,59.1129 94.9739,60.1129 96.5,62C 98.1341,62.4935 99.8008,62.6602 101.5,62.5C 101.328,63.4916 101.662,64.1583 102.5,64.5C 102.5,64.8333 102.5,65.1667 102.5,65.5C 99.0701,64.7377 96.0701,63.2377 93.5,61C 90.1464,60.5448 86.8131,60.0448 83.5,59.5C 81.1617,57.9605 78.4951,57.2938 75.5,57.5C 67.0099,56.3431 58.3433,56.1764 49.5,57C 48.5842,57.2784 47.9175,57.7784 47.5,58.5C 46.1667,58.5 44.8333,58.5 43.5,58.5C 41.5,58.5 39.5,58.5 37.5,58.5C 37.1667,57.8333 36.8333,57.1667 36.5,56.5C 38.7354,56.7947 40.7354,56.4614 42.5,55.5C 44.1392,54.5275 45.4726,53.1942 46.5,51.5 Z"/></g>
<g><path style="opacity:0.459" fill="#0c2636" d="M 104.5,52.5 C 104.756,56.2693 104.423,59.9359 103.5,63.5C 103.5,64.1667 103.167,64.5 102.5,64.5C 101.911,60.0293 102.577,56.0293 104.5,52.5 Z"/></g>
<g><path style="opacity:1" fill="#92bacf" d="M 75.5,57.5 C 67.3159,57.1743 59.3159,57.5076 51.5,58.5C 50.1667,58.5 48.8333,58.5 47.5,58.5C 47.9175,57.7784 48.5842,57.2784 49.5,57C 58.3433,56.1764 67.0099,56.3431 75.5,57.5 Z"/></g>
<g><path style="opacity:1" fill="#dde0e1" d="M 51.5,58.5 C 59.3159,57.5076 67.3159,57.1743 75.5,57.5C 78.4951,57.2938 81.1617,57.9605 83.5,59.5C 72.8518,58.723 62.1851,58.3897 51.5,58.5 Z"/></g>
<g><path style="opacity:1" fill="#0799e9" d="M 101.5,61.5 C 101.5,61.8333 101.5,62.1667 101.5,62.5C 99.8008,62.6602 98.1341,62.4935 96.5,62C 94.9739,60.1129 92.9739,59.1129 90.5,59C 89.4019,58.2303 89.4019,57.397 90.5,56.5C 93.1979,56.1551 95.1979,54.8218 96.5,52.5C 97.1174,52.3893 97.6174,52.056 98,51.5C 98.1786,54.5535 98.6786,57.5535 99.5,60.5C 100.183,60.8627 100.85,61.1961 101.5,61.5 Z"/></g>
<g><path style="opacity:1" fill="#6aa5c8" d="M 37.5,58.5 C 39.5,58.5 41.5,58.5 43.5,58.5C 37.0632,60.5517 30.7299,62.885 24.5,65.5C 24.5,65.1667 24.5,64.8333 24.5,64.5C 26.3797,64.7709 27.713,64.1042 28.5,62.5C 31.4726,61.0134 34.4726,59.6801 37.5,58.5 Z"/></g>
<g><path style="opacity:1" fill="#fbfbfb" d="M 43.5,58.5 C 44.8333,58.5 46.1667,58.5 47.5,58.5C 48.8333,58.5 50.1667,58.5 51.5,58.5C 62.1851,58.3897 72.8518,58.723 83.5,59.5C 86.8131,60.0448 90.1464,60.5448 93.5,61C 96.0701,63.2377 99.0701,64.7377 102.5,65.5C 104.147,67.3264 106.147,68.6597 108.5,69.5C 108.738,71.4044 109.738,72.7377 111.5,73.5C 112.36,77.4338 112.693,81.4338 112.5,85.5C 111.153,84.9717 109.819,84.805 108.5,85C 104.202,90.1421 98.8682,93.1421 92.5,94C 93.2524,93.3292 93.5858,92.4959 93.5,91.5C 93.5,91.1667 93.5,90.8333 93.5,90.5C 94.4345,89.4324 94.7678,88.099 94.5,86.5C 90.9979,86.6663 87.9979,85.6663 85.5,83.5C 83.4086,83.3184 81.4086,83.6518 79.5,84.5C 78.5108,88.1073 78.1774,91.774 78.5,95.5C 72.7617,98.6715 66.4283,99.8382 59.5,99C 55.7661,97.1749 51.7661,96.1749 47.5,96C 43.8154,94.8177 40.4821,92.9844 37.5,90.5C 37.3059,88.0882 35.9726,87.0882 33.5,87.5C 33.3505,88.552 33.5172,89.552 34,90.5C 36.0396,92.3702 37.8729,94.3702 39.5,96.5C 40.9025,97.9312 42.5692,99.0978 44.5,100C 45.7932,100.49 47.1266,100.657 48.5,100.5C 48.6107,101.117 48.944,101.617 49.5,102C 60.2853,102.967 70.952,102.467 81.5,100.5C 82.2389,100.369 82.9056,100.536 83.5,101C 81.2404,101.549 79.5738,102.716 78.5,104.5C 72.642,104.178 66.9753,104.511 61.5,105.5C 57.5,105.5 53.5,105.5 49.5,105.5C 47.2585,104.379 44.9252,103.213 42.5,102C 36.7008,100.911 31.0341,99.4106 25.5,97.5C 24.391,97.4431 23.391,97.1098 22.5,96.5C 20.8606,94.1939 18.8606,92.1939 16.5,90.5C 16.1667,89.8333 15.8333,89.1667 15.5,88.5C 14.8489,86.1743 14.1822,83.8409 13.5,81.5C 13.7284,79.7927 14.0617,78.126 14.5,76.5C 16.7593,75.656 17.7593,73.9893 17.5,71.5C 20.0892,70.5806 22.0892,68.914 23.5,66.5C 24.1667,66.5 24.5,66.1667 24.5,65.5C 30.7299,62.885 37.0632,60.5517 43.5,58.5 Z"/></g>
<g><path style="opacity:1" fill="#a8a6a4" d="M 37.5,66.5 C 35.901,66.2322 34.5676,66.5655 33.5,67.5C 32.8333,67.5 32.1667,67.5 31.5,67.5C 32.1342,66.0532 33.3009,65.3866 35,65.5C 36.0698,65.528 36.9032,65.8614 37.5,66.5 Z"/></g>
<g><path style="opacity:0.357" fill="#757675" d="M 103.5,63.5 C 105.341,64.4023 106.674,65.7356 107.5,67.5C 107.833,68.1667 108.167,68.8333 108.5,69.5C 106.147,68.6597 104.147,67.3264 102.5,65.5C 102.5,65.1667 102.5,64.8333 102.5,64.5C 103.167,64.5 103.5,64.1667 103.5,63.5 Z"/></g>
<g><path style="opacity:1" fill="#282828" d="M 94.5,66.5 C 94.8417,67.3382 95.5084,67.6716 96.5,67.5C 96.8064,70.3854 96.4731,73.0521 95.5,75.5C 95.5,73.1667 95.5,70.8333 95.5,68.5C 93.8333,68.5 92.1667,68.5 90.5,68.5C 91.287,66.8958 92.6203,66.2291 94.5,66.5 Z"/></g>
<g><path style="opacity:1" fill="#111010" d="M 31.5,67.5 C 32.1667,67.5 32.8333,67.5 33.5,67.5C 37.8004,67.8153 39.467,70.1486 38.5,74.5C 37.128,79.2572 34.9613,79.5906 32,75.5C 31.5026,72.854 31.3359,70.1873 31.5,67.5 Z"/></g>
<g><path style="opacity:1" fill="#121212" d="M 90.5,68.5 C 92.1667,68.5 93.8333,68.5 95.5,68.5C 95.5,70.8333 95.5,73.1667 95.5,75.5C 95.5,76.1667 95.1667,76.5 94.5,76.5C 92.7085,76.634 91.0418,76.3007 89.5,75.5C 89.1667,75.5 88.8333,75.5 88.5,75.5C 87.9898,72.6122 88.6565,70.2789 90.5,68.5 Z"/></g>
<g><path style="opacity:0.882" fill="#959595" d="M 23.5,66.5 C 22.0892,68.914 20.0892,70.5806 17.5,71.5C 18.9108,69.086 20.9108,67.4194 23.5,66.5 Z"/></g>
<g><path style="opacity:1" fill="#bab9b7" d="M 94.5,66.5 C 92.6203,66.2291 91.287,66.8958 90.5,68.5C 88.6565,70.2789 87.9898,72.6122 88.5,75.5C 87.1997,72.9759 87.1997,70.3092 88.5,67.5C 90.3945,65.5144 92.3945,65.1811 94.5,66.5 Z"/></g>
<g><path style="opacity:0.765" fill="#757474" d="M 108.5,69.5 C 110.262,70.2623 111.262,71.5956 111.5,73.5C 109.738,72.7377 108.738,71.4044 108.5,69.5 Z"/></g>
<g><path style="opacity:1" fill="#63615f" d="M 33.5,67.5 C 34.5676,66.5655 35.901,66.2322 37.5,66.5C 39.2261,68.8201 39.8928,71.4867 39.5,74.5C 39.1667,74.5 38.8333,74.5 38.5,74.5C 39.467,70.1486 37.8004,67.8153 33.5,67.5 Z"/></g>
<g><path style="opacity:0.051" fill="#141414" d="M 107.5,67.5 C 111.872,69.5413 114.872,72.8746 116.5,77.5C 115.5,77.5 114.5,77.5 113.5,77.5C 113.771,75.6203 113.104,74.287 111.5,73.5C 111.262,71.5956 110.262,70.2623 108.5,69.5C 108.167,68.8333 107.833,68.1667 107.5,67.5 Z"/></g>
<g><path style="opacity:1" fill="#bebdbc" d="M 17.5,71.5 C 17.7593,73.9893 16.7593,75.656 14.5,76.5C 14.7215,74.3364 15.7215,72.6697 17.5,71.5 Z"/></g>
<g><path style="opacity:1" fill="#9e9b9a" d="M 31.5,67.5 C 31.3359,70.1873 31.5026,72.854 32,75.5C 34.9613,79.5906 37.128,79.2572 38.5,74.5C 38.8333,74.5 39.1667,74.5 39.5,74.5C 37.9546,80.261 35.1213,80.9277 31,76.5C 30.1955,73.3035 30.3622,70.3035 31.5,67.5 Z"/></g>
<g><path style="opacity:1" fill="#a1a1a1" d="M 96.5,67.5 C 97.6378,70.3035 97.8045,73.3035 97,76.5C 96.2917,77.3805 95.4584,78.0472 94.5,78.5C 94.5,77.8333 94.5,77.1667 94.5,76.5C 95.1667,76.5 95.5,76.1667 95.5,75.5C 96.4731,73.0521 96.8064,70.3854 96.5,67.5 Z"/></g>
<g><path style="opacity:1" fill="#606061" d="M 89.5,75.5 C 91.0418,76.3007 92.7085,76.634 94.5,76.5C 94.5,77.1667 94.5,77.8333 94.5,78.5C 91.715,79.0838 90.0483,78.0838 89.5,75.5 Z"/></g>
<g><path style="opacity:0.981" fill="#b1b2b2" d="M 111.5,73.5 C 113.104,74.287 113.771,75.6203 113.5,77.5C 114.714,80.1293 114.714,82.796 113.5,85.5C 113.167,85.5 112.833,85.5 112.5,85.5C 112.693,81.4338 112.36,77.4338 111.5,73.5 Z"/></g>
<g><path style="opacity:0.639" fill="#7c7b7b" d="M 14.5,76.5 C 14.0617,78.126 13.7284,79.7927 13.5,81.5C 14.1822,83.8409 14.8489,86.1743 15.5,88.5C 14.2921,87.7659 12.9587,87.4326 11.5,87.5C 11.5,86.8333 11.5,86.1667 11.5,85.5C 12.3171,83.0314 12.8171,80.3647 13,77.5C 13.3826,76.944 13.8826,76.6107 14.5,76.5 Z"/></g>
<g><path style="opacity:0.469" fill="#7f8080" d="M 113.5,77.5 C 114.5,77.5 115.5,77.5 116.5,77.5C 116.5,80.1667 116.5,82.8333 116.5,85.5C 115.5,85.5 114.5,85.5 113.5,85.5C 114.714,82.796 114.714,80.1293 113.5,77.5 Z"/></g>
<g><path style="opacity:0.161" fill="#1b1a19" d="M 23.5,63.5 C 23.5,64.5 23.5,65.5 23.5,66.5C 20.9108,67.4194 18.9108,69.086 17.5,71.5C 15.7215,72.6697 14.7215,74.3364 14.5,76.5C 13.8826,76.6107 13.3826,76.944 13,77.5C 12.8171,80.3647 12.3171,83.0314 11.5,85.5C 10.2259,79.477 11.7259,74.1437 16,69.5C 18.6877,67.636 21.1877,65.636 23.5,63.5 Z"/></g>
<g><path style="opacity:1" fill="#d1d7d2" d="M 85.5,83.5 C 87.9979,85.6663 90.9979,86.6663 94.5,86.5C 94.7678,88.099 94.4345,89.4324 93.5,90.5C 92.5144,88.5923 90.8477,87.5923 88.5,87.5C 87.5,87.1667 86.8333,86.5 86.5,85.5C 86.1667,84.8333 85.8333,84.1667 85.5,83.5 Z"/></g>
<g><path style="opacity:1" fill="#e16c0e" d="M 86.5,85.5 C 86.8333,86.5 87.5,87.1667 88.5,87.5C 88.8333,88.5 89.5,89.1667 90.5,89.5C 90.7373,90.791 90.404,91.791 89.5,92.5C 88.5,92.5 87.5,92.5 86.5,92.5C 86.5,91.5 86.5,90.5 86.5,89.5C 85.5,89.5 84.5,89.5 83.5,89.5C 84.1667,91.5 84.8333,93.5 85.5,95.5C 83.5,96.8333 81.5,96.8333 79.5,95.5C 79.1796,92.1016 79.513,88.7683 80.5,85.5C 82.4816,84.3775 84.4816,84.3775 86.5,85.5 Z"/></g>
<g><path style="opacity:1" fill="#c3926f" d="M 85.5,83.5 C 85.8333,84.1667 86.1667,84.8333 86.5,85.5C 84.4816,84.3775 82.4816,84.3775 80.5,85.5C 79.513,88.7683 79.1796,92.1016 79.5,95.5C 79.1667,95.5 78.8333,95.5 78.5,95.5C 78.1774,91.774 78.5108,88.1073 79.5,84.5C 81.4086,83.6518 83.4086,83.3184 85.5,83.5 Z"/></g>
<g><path style="opacity:1" fill="#8e9393" d="M 88.5,87.5 C 90.8477,87.5923 92.5144,88.5923 93.5,90.5C 93.5,90.8333 93.5,91.1667 93.5,91.5C 93.1667,91.5 92.8333,91.5 92.5,91.5C 92.5,90.1667 91.8333,89.5 90.5,89.5C 89.5,89.1667 88.8333,88.5 88.5,87.5 Z"/></g>
<g><path style="opacity:0.412" fill="#5b5c5d" d="M 112.5,85.5 C 112.833,85.5 113.167,85.5 113.5,85.5C 113.88,87.698 113.213,89.3646 111.5,90.5C 112.038,88.8828 112.371,87.2161 112.5,85.5 Z"/></g>
<g><path style="opacity:0.067" fill="#202020" d="M 113.5,85.5 C 114.5,85.5 115.5,85.5 116.5,85.5C 114.091,91.3294 110.091,95.6628 104.5,98.5C 104.5,97.8333 104.5,97.1667 104.5,96.5C 106.808,94.5293 109.142,92.5293 111.5,90.5C 113.213,89.3646 113.88,87.698 113.5,85.5 Z"/></g>
<g><path style="opacity:1" fill="#a64d11" d="M 89.5,92.5 C 88.6935,93.7281 87.6935,94.7281 86.5,95.5C 86.1667,95.5 85.8333,95.5 85.5,95.5C 84.8333,93.5 84.1667,91.5 83.5,89.5C 84.5,89.5 85.5,89.5 86.5,89.5C 86.5,90.5 86.5,91.5 86.5,92.5C 87.5,92.5 88.5,92.5 89.5,92.5 Z"/></g>
<g><path style="opacity:0.137" fill="#2a2826" d="M 11.5,87.5 C 12.9587,87.4326 14.2921,87.7659 15.5,88.5C 15.8333,89.1667 16.1667,89.8333 16.5,90.5C 16.8333,91.8333 17.1667,93.1667 17.5,94.5C 14.8066,92.702 12.8066,90.3687 11.5,87.5 Z"/></g>
<g><path style="opacity:1" fill="#7c7b7b" d="M 37.5,90.5 C 38.6385,93.0862 40.6385,94.7529 43.5,95.5C 44.8502,96.6499 44.6836,97.3166 43,97.5C 41.8615,97.0109 40.6948,96.6775 39.5,96.5C 37.8729,94.3702 36.0396,92.3702 34,90.5C 33.5172,89.552 33.3505,88.552 33.5,87.5C 35.9726,87.0882 37.3059,88.0882 37.5,90.5 Z"/></g>
<g><path style="opacity:1" fill="#68514a" d="M 90.5,89.5 C 91.8333,89.5 92.5,90.1667 92.5,91.5C 91.2921,94.0442 89.2921,95.3775 86.5,95.5C 87.6935,94.7281 88.6935,93.7281 89.5,92.5C 90.404,91.791 90.7373,90.791 90.5,89.5 Z"/></g>
<g><path style="opacity:0.184" fill="#5c5b58" d="M 16.5,90.5 C 18.8606,92.1939 20.8606,94.1939 22.5,96.5C 21.8333,96.5 21.1667,96.5 20.5,96.5C 18.9731,96.573 17.9731,95.9063 17.5,94.5C 17.1667,93.1667 16.8333,91.8333 16.5,90.5 Z"/></g>
<g><path style="opacity:1" fill="#dee0e0" d="M 112.5,85.5 C 112.371,87.2161 112.038,88.8828 111.5,90.5C 109.142,92.5293 106.808,94.5293 104.5,96.5C 102.435,96.953 100.768,97.953 99.5,99.5C 96.5625,99.9767 93.8958,100.977 91.5,102.5C 88.6697,102.963 86.003,103.629 83.5,104.5C 81.8333,104.5 80.1667,104.5 78.5,104.5C 79.5738,102.716 81.2404,101.549 83.5,101C 82.9056,100.536 82.2389,100.369 81.5,100.5C 81.8333,99.8333 82.1667,99.1667 82.5,98.5C 84.2303,97.9744 85.5637,96.9744 86.5,95.5C 89.2921,95.3775 91.2921,94.0442 92.5,91.5C 92.8333,91.5 93.1667,91.5 93.5,91.5C 93.5858,92.4959 93.2524,93.3292 92.5,94C 98.8682,93.1421 104.202,90.1421 108.5,85C 109.819,84.805 111.153,84.9717 112.5,85.5 Z"/></g>
<g><path style="opacity:1" fill="#937260" d="M 79.5,95.5 C 81.5,96.8333 83.5,96.8333 85.5,95.5C 85.8333,95.5 86.1667,95.5 86.5,95.5C 85.5637,96.9744 84.2303,97.9744 82.5,98.5C 81.5,98.5 80.5,98.5 79.5,98.5C 79.5,97.5 79.5,96.5 79.5,95.5 Z"/></g>
<g><path style="opacity:0.275" fill="#7d7c7b" d="M 104.5,96.5 C 104.5,97.1667 104.5,97.8333 104.5,98.5C 104.158,99.3382 103.492,99.6716 102.5,99.5C 101.798,98.8843 100.798,98.8843 99.5,99.5C 100.768,97.953 102.435,96.953 104.5,96.5 Z"/></g>
<g><path style="opacity:0.992" fill="#bbbaba" d="M 43.5,95.5 C 48.1769,96.7735 52.8436,98.2735 57.5,100C 57.8333,100.333 58.1667,100.667 58.5,101C 55.1119,101.659 51.7786,101.492 48.5,100.5C 47.1266,100.657 45.7932,100.49 44.5,100C 42.5692,99.0978 40.9025,97.9312 39.5,96.5C 40.6948,96.6775 41.8615,97.0109 43,97.5C 44.6836,97.3166 44.8502,96.6499 43.5,95.5 Z"/></g>
<g><path style="opacity:0.988" fill="#d3d2d1" d="M 37.5,90.5 C 40.4821,92.9844 43.8154,94.8177 47.5,96C 51.7661,96.1749 55.7661,97.1749 59.5,99C 66.4283,99.8382 72.7617,98.6715 78.5,95.5C 78.8333,95.5 79.1667,95.5 79.5,95.5C 79.5,96.5 79.5,97.5 79.5,98.5C 80.5,98.5 81.5,98.5 82.5,98.5C 82.1667,99.1667 81.8333,99.8333 81.5,100.5C 70.952,102.467 60.2853,102.967 49.5,102C 48.944,101.617 48.6107,101.117 48.5,100.5C 51.7786,101.492 55.1119,101.659 58.5,101C 58.1667,100.667 57.8333,100.333 57.5,100C 52.8436,98.2735 48.1769,96.7735 43.5,95.5C 40.6385,94.7529 38.6385,93.0862 37.5,90.5 Z"/></g>
<g><path style="opacity:0.063" fill="#1a1817" d="M 102.5,99.5 C 101.341,101.25 99.674,102.25 97.5,102.5C 97.7822,101.222 98.4489,100.222 99.5,99.5C 100.798,98.8843 101.798,98.8843 102.5,99.5 Z"/></g>
<g><path style="opacity:0.176" fill="#302f2d" d="M 20.5,96.5 C 21.1667,96.5 21.8333,96.5 22.5,96.5C 23.391,97.1098 24.391,97.4431 25.5,97.5C 26.7682,99.047 28.4348,100.047 30.5,100.5C 30.5,101.5 30.5,102.5 30.5,103.5C 26.6114,101.942 23.278,99.6089 20.5,96.5 Z"/></g>
<g><path style="opacity:0.482" fill="#959392" d="M 30.5,100.5 C 32.6264,101.048 34.6264,101.715 36.5,102.5C 35.209,102.263 34.209,102.596 33.5,103.5C 32.5,103.5 31.5,103.5 30.5,103.5C 30.5,102.5 30.5,101.5 30.5,100.5 Z"/></g>
<g><path style="opacity:0.355" fill="#777675" d="M 99.5,99.5 C 98.4489,100.222 97.7822,101.222 97.5,102.5C 96.791,103.404 95.791,103.737 94.5,103.5C 93.791,102.596 92.791,102.263 91.5,102.5C 93.8958,100.977 96.5625,99.9767 99.5,99.5 Z"/></g>
<g><path style="opacity:1" fill="#dacecc" d="M 25.5,97.5 C 31.0341,99.4106 36.7008,100.911 42.5,102C 44.9252,103.213 47.2585,104.379 49.5,105.5C 47.0971,105.552 44.7638,105.219 42.5,104.5C 40.8333,104.5 39.1667,104.5 37.5,104.5C 37.1667,103.833 36.8333,103.167 36.5,102.5C 34.6264,101.715 32.6264,101.048 30.5,100.5C 28.4348,100.047 26.7682,99.047 25.5,97.5 Z"/></g>
<g><path style="opacity:0.184" fill="#292827" d="M 91.5,102.5 C 92.791,102.263 93.791,102.596 94.5,103.5C 93.7095,104.401 92.7095,105.068 91.5,105.5C 91.5,104.5 91.5,103.5 91.5,102.5 Z"/></g>
<g><path style="opacity:0.008" fill="#343737" d="M 36.5,102.5 C 36.8333,103.167 37.1667,103.833 37.5,104.5C 37.5,105.167 37.1667,105.5 36.5,105.5C 34.9731,105.573 33.9731,104.906 33.5,103.5C 34.209,102.596 35.209,102.263 36.5,102.5 Z"/></g>
<g><path style="opacity:1" fill="#c7bbb9" d="M 78.5,104.5 C 80.1667,104.5 81.8333,104.5 83.5,104.5C 83.5,104.833 83.5,105.167 83.5,105.5C 82.8333,105.5 82.1667,105.5 81.5,105.5C 76.6616,105.911 71.9949,106.578 67.5,107.5C 67.1667,107.5 66.8333,107.5 66.5,107.5C 66.1667,107.5 65.8333,107.5 65.5,107.5C 64.2921,106.766 62.9587,106.433 61.5,106.5C 61.5,106.167 61.5,105.833 61.5,105.5C 66.9753,104.511 72.642,104.178 78.5,104.5 Z"/></g>
<g><path style="opacity:0.027" fill="#8e7978" d="M 91.5,102.5 C 91.5,103.5 91.5,104.5 91.5,105.5C 90.8333,105.5 90.1667,105.5 89.5,105.5C 87.6208,104.659 85.6208,104.325 83.5,104.5C 86.003,103.629 88.6697,102.963 91.5,102.5 Z"/></g>
<g><path style="opacity:1" fill="#cd5853" d="M 42.5,104.5 C 44.7638,105.219 47.0971,105.552 49.5,105.5C 49.5,105.833 49.5,106.167 49.5,106.5C 47.5,106.5 45.5,106.5 43.5,106.5C 43.1667,105.833 42.8333,105.167 42.5,104.5 Z"/></g>
<g><path style="opacity:1" fill="#d09991" d="M 49.5,106.5 C 49.5,106.167 49.5,105.833 49.5,105.5C 53.5,105.5 57.5,105.5 61.5,105.5C 61.5,105.833 61.5,106.167 61.5,106.5C 61.5,106.833 61.5,107.167 61.5,107.5C 60.8333,107.5 60.1667,107.5 59.5,107.5C 59.5,106.833 59.1667,106.5 58.5,106.5C 55.5,106.5 52.5,106.5 49.5,106.5 Z"/></g>
<g><path style="opacity:1" fill="#ce3530" d="M 49.5,106.5 C 52.5,106.5 55.5,106.5 58.5,106.5C 58.7373,107.791 58.404,108.791 57.5,109.5C 55.1433,107.902 52.4766,106.902 49.5,106.5 Z"/></g>
<g><path style="opacity:1" fill="#c83a31" d="M 81.5,105.5 C 80.5,106.167 79.5,106.833 78.5,107.5C 75.5,107.5 72.5,107.5 69.5,107.5C 68.596,108.209 68.2627,109.209 68.5,110.5C 67.596,109.791 67.2627,108.791 67.5,107.5C 71.9949,106.578 76.6616,105.911 81.5,105.5 Z"/></g>
<g><path style="opacity:0.839" fill="#99140f" d="M 83.5,105.5 C 83.5,105.167 83.5,104.833 83.5,104.5C 85.6208,104.325 87.6208,104.659 89.5,105.5C 89.5,106.833 89.5,108.167 89.5,109.5C 88.5,109.5 87.5,109.5 86.5,109.5C 86.5,108.167 86.5,106.833 86.5,105.5C 85.5,105.5 84.5,105.5 83.5,105.5 Z"/></g>
<g><path style="opacity:0.531" fill="#cb0a08" d="M 37.5,104.5 C 39.1667,104.5 40.8333,104.5 42.5,104.5C 42.8333,105.167 43.1667,105.833 43.5,106.5C 42.1667,106.5 40.8333,106.5 39.5,106.5C 39.5,107.5 39.5,108.5 39.5,109.5C 38.5,109.5 37.5,109.5 36.5,109.5C 36.5,108.167 36.5,106.833 36.5,105.5C 37.1667,105.5 37.5,105.167 37.5,104.5 Z"/></g>
<g><path style="opacity:1" fill="#ec0302" d="M 43.5,106.5 C 45.5,106.5 47.5,106.5 49.5,106.5C 52.4766,106.902 55.1433,107.902 57.5,109.5C 57.5,109.833 57.5,110.167 57.5,110.5C 57.1667,110.5 56.8333,110.5 56.5,110.5C 50.8333,110.5 45.1667,110.5 39.5,110.5C 39.5,110.167 39.5,109.833 39.5,109.5C 39.5,108.5 39.5,107.5 39.5,106.5C 40.8333,106.5 42.1667,106.5 43.5,106.5 Z"/></g>
<g><path style="opacity:1" fill="#f70202" d="M 70.5,109.5 C 69.6618,109.158 69.3284,108.492 69.5,107.5C 72.5,107.5 75.5,107.5 78.5,107.5C 80.861,107.326 83.1944,106.993 85.5,106.5C 85.5,107.5 85.5,108.5 85.5,109.5C 80.5,109.5 75.5,109.5 70.5,109.5 Z"/></g>
<g><path style="opacity:0.992" fill="#a25f1e" d="M 58.5,106.5 C 59.1667,106.5 59.5,106.833 59.5,107.5C 59.7373,108.791 59.404,109.791 58.5,110.5C 58.1667,110.5 57.8333,110.5 57.5,110.5C 57.5,110.167 57.5,109.833 57.5,109.5C 58.404,108.791 58.7373,107.791 58.5,106.5 Z"/></g>
<g><path style="opacity:0.992" fill="#e1d73c" d="M 61.5,106.5 C 62.9587,106.433 64.2921,106.766 65.5,107.5C 65.5,108.5 65.5,109.5 65.5,110.5C 63.712,110.785 62.0453,110.452 60.5,109.5C 60.8627,108.817 61.1961,108.15 61.5,107.5C 61.5,107.167 61.5,106.833 61.5,106.5 Z"/></g>
<g><path style="opacity:0.98" fill="#da0602" d="M 81.5,105.5 C 82.1667,105.5 82.8333,105.5 83.5,105.5C 84.5,105.5 85.5,105.5 86.5,105.5C 86.5,106.833 86.5,108.167 86.5,109.5C 86.5,109.833 86.5,110.167 86.5,110.5C 80.9738,110.821 75.6405,110.488 70.5,109.5C 75.5,109.5 80.5,109.5 85.5,109.5C 85.5,108.5 85.5,107.5 85.5,106.5C 83.1944,106.993 80.861,107.326 78.5,107.5C 79.5,106.833 80.5,106.167 81.5,105.5 Z"/></g>
<g><path style="opacity:0.988" fill="#9d9030" d="M 66.5,107.5 C 66.8333,107.5 67.1667,107.5 67.5,107.5C 67.2627,108.791 67.596,109.791 68.5,110.5C 69.5,110.833 70.1667,111.5 70.5,112.5C 70.8064,115.385 70.4731,118.052 69.5,120.5C 69.5987,117.763 69.2653,115.096 68.5,112.5C 67.032,111.221 66.3653,109.554 66.5,107.5 Z"/></g>
<g><path style="opacity:0.796" fill="#aa0601" d="M 69.5,107.5 C 69.3284,108.492 69.6618,109.158 70.5,109.5C 75.6405,110.488 80.9738,110.821 86.5,110.5C 86.5,111.5 86.5,112.5 86.5,113.5C 81.5,113.5 76.5,113.5 71.5,113.5C 71.5,112.833 71.1667,112.5 70.5,112.5C 70.1667,111.5 69.5,110.833 68.5,110.5C 68.2627,109.209 68.596,108.209 69.5,107.5 Z"/></g>
<g><path style="opacity:0.141" fill="#28302c" d="M 36.5,110.5 C 38.0481,110.821 38.7148,111.821 38.5,113.5C 36.9519,113.179 36.2852,112.179 36.5,110.5 Z"/></g>
<g><path style="opacity:0.271" fill="#60201b" d="M 36.5,110.5 C 36.5,110.167 36.5,109.833 36.5,109.5C 37.5,109.5 38.5,109.5 39.5,109.5C 39.5,109.833 39.5,110.167 39.5,110.5C 39.5,111.5 39.5,112.5 39.5,113.5C 39.1667,113.5 38.8333,113.5 38.5,113.5C 38.7148,111.821 38.0481,110.821 36.5,110.5 Z"/></g>
<g><path style="opacity:0.289" fill="#a60b02" d="M 39.5,110.5 C 45.1667,110.5 50.8333,110.5 56.5,110.5C 56.5674,111.959 56.2341,113.292 55.5,114.5C 55.1667,114.5 54.8333,114.5 54.5,114.5C 49.6946,113.513 44.6946,113.179 39.5,113.5C 39.5,112.5 39.5,111.5 39.5,110.5 Z"/></g>
<g><path style="opacity:0.102" fill="#2e0a07" d="M 86.5,109.5 C 87.5,109.5 88.5,109.5 89.5,109.5C 89.2624,111.404 88.2624,112.738 86.5,113.5C 86.5,112.5 86.5,111.5 86.5,110.5C 86.5,110.167 86.5,109.833 86.5,109.5 Z"/></g>
<g><path style="opacity:1" fill="#f7f149" d="M 57.5,120.5 C 56.2437,118.274 56.2437,115.941 57.5,113.5C 58.1499,113.196 58.8165,112.863 59.5,112.5C 60.7946,115.012 61.4613,117.679 61.5,120.5C 60.1667,120.5 58.8333,120.5 57.5,120.5 Z"/></g>
<g><path style="opacity:0.996" fill="#cebd3a" d="M 59.5,107.5 C 60.1667,107.5 60.8333,107.5 61.5,107.5C 61.1961,108.15 60.8627,108.817 60.5,109.5C 62.0453,110.452 63.712,110.785 65.5,110.5C 65.5,109.5 65.5,108.5 65.5,107.5C 65.8333,107.5 66.1667,107.5 66.5,107.5C 66.3653,109.554 67.032,111.221 68.5,112.5C 67.5,112.5 66.5,112.5 65.5,112.5C 65.5,115.167 65.5,117.833 65.5,120.5C 66.8333,120.5 68.1667,120.5 69.5,120.5C 69.5,121.167 69.5,121.833 69.5,122.5C 67.8333,122.5 66.1667,122.5 64.5,122.5C 63.8333,113.167 63.1667,113.167 62.5,122.5C 60.8333,122.5 59.1667,122.5 57.5,122.5C 57.5,121.833 57.5,121.167 57.5,120.5C 58.8333,120.5 60.1667,120.5 61.5,120.5C 61.4613,117.679 60.7946,115.012 59.5,112.5C 58.8165,112.863 58.1499,113.196 57.5,113.5C 57.5569,112.391 57.8902,111.391 58.5,110.5C 59.404,109.791 59.7373,108.791 59.5,107.5 Z"/></g>
<g><path style="opacity:0.976" fill="#a0872b" d="M 64.5,122.5 C 63.8333,122.5 63.1667,122.5 62.5,122.5C 63.1667,113.167 63.8333,113.167 64.5,122.5 Z"/></g>
<g><path style="opacity:1" fill="#f5eb49" d="M 68.5,112.5 C 69.2653,115.096 69.5987,117.763 69.5,120.5C 68.1667,120.5 66.8333,120.5 65.5,120.5C 65.5,117.833 65.5,115.167 65.5,112.5C 66.5,112.5 67.5,112.5 68.5,112.5 Z"/></g>
<g><path style="opacity:0.839" fill="#969031" d="M 56.5,110.5 C 56.8333,110.5 57.1667,110.5 57.5,110.5C 57.8333,110.5 58.1667,110.5 58.5,110.5C 57.8902,111.391 57.5569,112.391 57.5,113.5C 56.2437,115.941 56.2437,118.274 57.5,120.5C 57.5,121.167 57.5,121.833 57.5,122.5C 56.8333,122.5 56.1667,122.5 55.5,122.5C 55.5,119.833 55.5,117.167 55.5,114.5C 56.2341,113.292 56.5674,111.959 56.5,110.5 Z"/></g>
<g><path style="opacity:0.298" fill="#2d2c2a" d="M 70.5,112.5 C 71.1667,112.5 71.5,112.833 71.5,113.5C 73.0438,116.248 73.7105,119.248 73.5,122.5C 72.1667,122.5 70.8333,122.5 69.5,122.5C 69.5,121.833 69.5,121.167 69.5,120.5C 70.4731,118.052 70.8064,115.385 70.5,112.5 Z"/></g>
<g><path style="opacity:0.027" fill="#171816" d="M 54.5,114.5 C 54.8333,114.5 55.1667,114.5 55.5,114.5C 55.5,117.167 55.5,119.833 55.5,122.5C 54.5,122.5 53.5,122.5 52.5,122.5C 52.1315,119.467 52.7982,116.8 54.5,114.5 Z"/></g>
</svg>
